0
SECTION
2
HEADER
9
$INSUNITS
70
4
0
ENDSEC
0
SECTION
2
TABLES
0
TABLE
2
LTYPE
0
LTYPE
72
65
70
64
2
CONTINUOUS
3
______
73
0
40
0
0
ENDTAB
0
TABLE
2
LAYER
0
ENDTAB
0
ENDSEC
0
SECTION
2
ENTITIES
0
LINE
8
0
10
-11
20
76.5
11
-11
21
-8.5
0
LINE
8
0
10
-9
20
-10.5
11
63
21
-10.5
0
LINE
8
0
10
65
20
-8.5
11
65
21
76.5
0
LINE
8
0
10
63
20
78.5
11
-9
21
78.5
0
ARC
8
0
10
-9
20
-8.5
40
2
50
180
51
270
0
ARC
8
0
10
63
20
-8.5
40
2
50
270
51
0
0
ARC
8
0
10
63
20
76.5
40
2
50
0
51
90
0
ARC
8
0
10
-9
20
76.5
40
2
50
90
51
180
0
LINE
8
0
10
-8.75
20
-8.25
11
8.75
21
-8.25
0
LINE
8
0
10
8.75
20
-8.25
11
8.75
21
8.25
0
LINE
8
0
10
8.75
20
8.25
11
-8.75
21
8.25
0
LINE
8
0
10
-8.75
20
8.25
11
-8.75
21
-8.25
0
LINE
8
0
10
-8.75
20
8.75
11
8.75
21
8.75
0
LINE
8
0
10
8.75
20
8.75
11
8.75
21
25.25
0
LINE
8
0
10
8.75
20
25.25
11
-8.75
21
25.25
0
LINE
8
0
10
-8.75
20
25.25
11
-8.75
21
8.75
0
LINE
8
0
10
-8.75
20
25.75
11
8.75
21
25.75
0
LINE
8
0
10
8.75
20
25.75
11
8.75
21
42.25
0
LINE
8
0
10
8.75
20
42.25
11
-8.75
21
42.25
0
LINE
8
0
10
-8.75
20
42.25
11
-8.75
21
25.75
0
LINE
8
0
10
-8.75
20
42.75
11
8.75
21
42.75
0
LINE
8
0
10
8.75
20
42.75
11
8.75
21
59.25
0
LINE
8
0
10
8.75
20
59.25
11
-8.75
21
59.25
0
LINE
8
0
10
-8.75
20
59.25
11
-8.75
21
42.75
0
LINE
8
0
10
-8.75
20
59.75
11
8.75
21
59.75
0
LINE
8
0
10
8.75
20
59.75
11
8.75
21
76.25
0
LINE
8
0
10
8.75
20
76.25
11
-8.75
21
76.25
0
LINE
8
0
10
-8.75
20
76.25
11
-8.75
21
59.75
0
LINE
8
0
10
9.25
20
8.75
11
26.75
21
8.75
0
LINE
8
0
10
26.75
20
8.75
11
26.75
21
25.25
0
LINE
8
0
10
26.75
20
25.25
11
9.25
21
25.25
0
LINE
8
0
10
9.25
20
25.25
11
9.25
21
8.75
0
LINE
8
0
10
9.25
20
25.75
11
26.75
21
25.75
0
LINE
8
0
10
26.75
20
25.75
11
26.75
21
42.25
0
LINE
8
0
10
26.75
20
42.25
11
9.25
21
42.25
0
LINE
8
0
10
9.25
20
42.25
11
9.25
21
25.75
0
LINE
8
0
10
9.25
20
42.75
11
26.75
21
42.75
0
LINE
8
0
10
26.75
20
42.75
11
26.75
21
59.25
0
LINE
8
0
10
26.75
20
59.25
11
9.25
21
59.25
0
LINE
8
0
10
9.25
20
59.25
11
9.25
21
42.75
0
LINE
8
0
10
9.25
20
59.75
11
26.75
21
59.75
0
LINE
8
0
10
26.75
20
59.75
11
26.75
21
76.25
0
LINE
8
0
10
26.75
20
76.25
11
9.25
21
76.25
0
LINE
8
0
10
9.25
20
76.25
11
9.25
21
59.75
0
LINE
8
0
10
27.25
20
-8.25
11
44.75
21
-8.25
0
LINE
8
0
10
44.75
20
-8.25
11
44.75
21
8.25
0
LINE
8
0
10
44.75
20
8.25
11
27.25
21
8.25
0
LINE
8
0
10
27.25
20
8.25
11
27.25
21
-8.25
0
LINE
8
0
10
27.25
20
8.75
11
44.75
21
8.75
0
LINE
8
0
10
44.75
20
8.75
11
44.75
21
25.25
0
LINE
8
0
10
44.75
20
25.25
11
27.25
21
25.25
0
LINE
8
0
10
27.25
20
25.25
11
27.25
21
8.75
0
LINE
8
0
10
27.25
20
25.75
11
44.75
21
25.75
0
LINE
8
0
10
44.75
20
25.75
11
44.75
21
42.25
0
LINE
8
0
10
44.75
20
42.25
11
27.25
21
42.25
0
LINE
8
0
10
27.25
20
42.25
11
27.25
21
25.75
0
LINE
8
0
10
27.25
20
42.75
11
44.75
21
42.75
0
LINE
8
0
10
44.75
20
42.75
11
44.75
21
59.25
0
LINE
8
0
10
44.75
20
59.25
11
27.25
21
59.25
0
LINE
8
0
10
27.25
20
59.25
11
27.25
21
42.75
0
LINE
8
0
10
27.25
20
59.75
11
44.75
21
59.75
0
LINE
8
0
10
44.75
20
59.75
11
44.75
21
76.25
0
LINE
8
0
10
44.75
20
76.25
11
27.25
21
76.25
0
LINE
8
0
10
27.25
20
76.25
11
27.25
21
59.75
0
LINE
8
0
10
45.25
20
-8.25
11
62.75
21
-8.25
0
LINE
8
0
10
62.75
20
-8.25
11
62.75
21
8.25
0
LINE
8
0
10
62.75
20
8.25
11
45.25
21
8.25
0
LINE
8
0
10
45.25
20
8.25
11
45.25
21
-8.25
0
LINE
8
0
10
45.25
20
25.75
11
62.75
21
25.75
0
LINE
8
0
10
62.75
20
25.75
11
62.75
21
42.25
0
LINE
8
0
10
62.75
20
42.25
11
45.25
21
42.25
0
LINE
8
0
10
45.25
20
42.25
11
45.25
21
25.75
0
LINE
8
0
10
45.25
20
42.75
11
62.75
21
42.75
0
LINE
8
0
10
62.75
20
42.75
11
62.75
21
59.25
0
LINE
8
0
10
62.75
20
59.25
11
45.25
21
59.25
0
LINE
8
0
10
45.25
20
59.25
11
45.25
21
42.75
0
LINE
8
0
10
45.25
20
59.75
11
62.75
21
59.75
0
LINE
8
0
10
62.75
20
59.75
11
62.75
21
76.25
0
LINE
8
0
10
62.75
20
76.25
11
45.25
21
76.25
0
LINE
8
0
10
45.25
20
76.25
11
45.25
21
59.75
0
ENDSEC
0
EOF