0
SECTION
2
HEADER
9
$INSUNITS
70
4
0
ENDSEC
0
SECTION
2
TABLES
0
TABLE
2
LTYPE
0
LTYPE
72
65
70
64
2
CONTINUOUS
3
______
73
0
40
0
0
ENDTAB
0
TABLE
2
LAYER
0
ENDTAB
0
ENDSEC
0
SECTION
2
ENTITIES
0
LINE
8
0
10
62.7398065
20
-66.5062128
11
62.6062321
21
-23.5062128
0
LINE
8
0
10
64.6062225
20
-21.5
11
167.4
21
-21.5
0
LINE
8
0
10
169.4
20
-23.5
11
169.4
21
-108.5
0
LINE
8
0
10
167.4
20
-110.5
11
86.746
21
-110.5
0
LINE
8
0
10
84.746
20
-108.5
11
84.746
21
-70.5
0
LINE
8
0
10
82.746
20
-68.5
11
64.7397969
21
-68.5
0
ARC
8
0
10
64.6062225
20
-23.5
40
2
50
90
51
180.1779839
0
ARC
8
0
10
167.4
20
-23.5
40
2
50
0
51
90
0
ARC
8
0
10
167.4
20
-108.5
40
2
50
270
51
0
0
ARC
8
0
10
86.746
20
-108.5
40
2
50
180
51
270
0
ARC
8
0
10
82.746
20
-70.5
40
2
50
0
51
90
0
ARC
8
0
10
64.7397969
20
-66.5
40
2
50
180.1779839
51
270
0
LINE
8
0
10
91.25
20
-91.25
11
108.75
21
-91.25
0
LINE
8
0
10
108.75
20
-91.25
11
108.75
21
-74.75
0
LINE
8
0
10
108.75
20
-74.75
11
91.25
21
-74.75
0
LINE
8
0
10
91.25
20
-74.75
11
91.25
21
-91.25
0
LINE
8
0
10
91.25
20
-74.25
11
108.75
21
-74.25
0
LINE
8
0
10
108.75
20
-74.25
11
108.75
21
-57.75
0
LINE
8
0
10
108.75
20
-57.75
11
91.25
21
-57.75
0
LINE
8
0
10
91.25
20
-57.75
11
91.25
21
-74.25
0
LINE
8
0
10
91.25
20
-57.25
11
108.75
21
-57.25
0
LINE
8
0
10
108.75
20
-57.25
11
108.75
21
-40.75
0
LINE
8
0
10
108.75
20
-40.75
11
91.25
21
-40.75
0
LINE
8
0
10
91.25
20
-40.75
11
91.25
21
-57.25
0
LINE
8
0
10
91.25
20
-40.25
11
108.75
21
-40.25
0
LINE
8
0
10
108.75
20
-40.25
11
108.75
21
-23.75
0
LINE
8
0
10
108.75
20
-23.75
11
91.25
21
-23.75
0
LINE
8
0
10
91.25
20
-23.75
11
91.25
21
-40.25
0
LINE
8
0
10
109.25
20
-91.25
11
126.75
21
-91.25
0
LINE
8
0
10
126.75
20
-91.25
11
126.75
21
-74.75
0
LINE
8
0
10
126.75
20
-74.75
11
109.25
21
-74.75
0
LINE
8
0
10
109.25
20
-74.75
11
109.25
21
-91.25
0
LINE
8
0
10
109.25
20
-74.25
11
126.75
21
-74.25
0
LINE
8
0
10
126.75
20
-74.25
11
126.75
21
-57.75
0
LINE
8
0
10
126.75
20
-57.75
11
109.25
21
-57.75
0
LINE
8
0
10
109.25
20
-57.75
11
109.25
21
-74.25
0
LINE
8
0
10
109.25
20
-57.25
11
126.75
21
-57.25
0
LINE
8
0
10
126.75
20
-57.25
11
126.75
21
-40.75
0
LINE
8
0
10
126.75
20
-40.75
11
109.25
21
-40.75
0
LINE
8
0
10
109.25
20
-40.75
11
109.25
21
-57.25
0
LINE
8
0
10
109.25
20
-40.25
11
126.75
21
-40.25
0
LINE
8
0
10
126.75
20
-40.25
11
126.75
21
-23.75
0
LINE
8
0
10
126.75
20
-23.75
11
109.25
21
-23.75
0
LINE
8
0
10
109.25
20
-23.75
11
109.25
21
-40.25
0
LINE
8
0
10
127.25
20
-108.25
11
144.75
21
-108.25
0
LINE
8
0
10
144.75
20
-108.25
11
144.75
21
-91.75
0
LINE
8
0
10
144.75
20
-91.75
11
127.25
21
-91.75
0
LINE
8
0
10
127.25
20
-91.75
11
127.25
21
-108.25
0
LINE
8
0
10
127.25
20
-91.25
11
144.75
21
-91.25
0
LINE
8
0
10
144.75
20
-91.25
11
144.75
21
-74.75
0
LINE
8
0
10
144.75
20
-74.75
11
127.25
21
-74.75
0
LINE
8
0
10
127.25
20
-74.75
11
127.25
21
-91.25
0
LINE
8
0
10
127.25
20
-74.25
11
144.75
21
-74.25
0
LINE
8
0
10
144.75
20
-74.25
11
144.75
21
-57.75
0
LINE
8
0
10
144.75
20
-57.75
11
127.25
21
-57.75
0
LINE
8
0
10
127.25
20
-57.75
11
127.25
21
-74.25
0
LINE
8
0
10
127.25
20
-57.25
11
144.75
21
-57.25
0
LINE
8
0
10
144.75
20
-57.25
11
144.75
21
-40.75
0
LINE
8
0
10
144.75
20
-40.75
11
127.25
21
-40.75
0
LINE
8
0
10
127.25
20
-40.75
11
127.25
21
-57.25
0
LINE
8
0
10
127.25
20
-40.25
11
144.75
21
-40.25
0
LINE
8
0
10
144.75
20
-40.25
11
144.75
21
-23.75
0
LINE
8
0
10
144.75
20
-23.75
11
127.25
21
-23.75
0
LINE
8
0
10
127.25
20
-23.75
11
127.25
21
-40.25
0
LINE
8
0
10
145.25
20
-108.25
11
162.75
21
-108.25
0
LINE
8
0
10
162.75
20
-108.25
11
162.75
21
-91.75
0
LINE
8
0
10
162.75
20
-91.75
11
145.25
21
-91.75
0
LINE
8
0
10
145.25
20
-91.75
11
145.25
21
-108.25
0
LINE
8
0
10
145.25
20
-91.25
11
162.75
21
-91.25
0
LINE
8
0
10
162.75
20
-91.25
11
162.75
21
-74.75
0
LINE
8
0
10
162.75
20
-74.75
11
145.25
21
-74.75
0
LINE
8
0
10
145.25
20
-74.75
11
145.25
21
-91.25
0
LINE
8
0
10
145.25
20
-74.25
11
162.75
21
-74.25
0
LINE
8
0
10
162.75
20
-74.25
11
162.75
21
-57.75
0
LINE
8
0
10
162.75
20
-57.75
11
145.25
21
-57.75
0
LINE
8
0
10
145.25
20
-57.75
11
145.25
21
-74.25
0
LINE
8
0
10
145.25
20
-57.25
11
162.75
21
-57.25
0
LINE
8
0
10
162.75
20
-57.25
11
162.75
21
-40.75
0
LINE
8
0
10
162.75
20
-40.75
11
145.25
21
-40.75
0
LINE
8
0
10
145.25
20
-40.75
11
145.25
21
-57.25
0
LINE
8
0
10
145.25
20
-40.25
11
162.75
21
-40.25
0
LINE
8
0
10
162.75
20
-40.25
11
162.75
21
-23.75
0
LINE
8
0
10
162.75
20
-23.75
11
145.25
21
-23.75
0
LINE
8
0
10
145.25
20
-23.75
11
145.25
21
-40.25
0
LINE
8
0
10
100.196
20
-108.25
11
117.696
21
-108.25
0
LINE
8
0
10
117.696
20
-108.25
11
117.696
21
-91.75
0
LINE
8
0
10
117.696
20
-91.75
11
100.196
21
-91.75
0
LINE
8
0
10
100.196
20
-91.75
11
100.196
21
-108.25
0
ENDSEC
0
EOF