0
SECTION
2
HEADER
9
$INSUNITS
70
4
0
ENDSEC
0
SECTION
2
TABLES
0
TABLE
2
LTYPE
0
LTYPE
72
65
70
64
2
CONTINUOUS
3
______
73
0
40
0
0
ENDTAB
0
TABLE
2
LAYER
0
ENDTAB
0
ENDSEC
0
SECTION
2
ENTITIES
0
LINE
8
0
10
67.7118
20
-66.0499722
11
77.6420554
21
-23.0499722
0
LINE
8
0
10
79.5907665
20
-21.5
11
162.1695302
21
-21.5
0
LINE
8
0
10
164.0546942
20
-24.1679498
11
161
21
-32.7892562
0
LINE
8
0
10
134.7057101
20
-107
11
134.0096063
21
-108.9646235
0
LINE
8
0
10
140.7291362
20
-90
11
139.6661786
21
-93
0
LINE
8
0
10
147
20
-72.3016529
11
143
21
-83.5909091
0
LINE
8
0
10
152.7759883
20
-56
11
151.7130307
21
-59
0
LINE
8
0
10
158.7994143
20
-39
11
157.7364568
21
-42
0
LINE
8
0
10
132.1339029
20
-110.2966514
11
91.1554606
21
-110.4904945
0
LINE
8
0
10
89.146
20
-108.4905169
11
89.146
21
-70.5
0
LINE
8
0
10
87.146
20
-68.5
11
69.6605112
21
-68.5
0
ARC
8
0
10
79.5907665
20
-23.5
40
2
50
90
51
166.9963038
0
ARC
8
0
10
162.1695302
20
-23.5
40
2
50
340.4897864
51
90
0
ARC
8
0
10
132.1244423
20
-108.2966738
40
2
50
270.2710272
51
340.4897864
0
ARC
8
0
10
91.146
20
-108.4905169
40
2
50
180
51
270.2710272
0
ARC
8
0
10
87.146
20
-70.5
40
2
50
0
51
90
0
ARC
8
0
10
69.6605112
20
-66.5
40
2
50
166.9963038
51
270
0
LINE
8
0
10
93
20
-90
11
107
21
-90
0
LINE
8
0
10
107
20
-90
11
107
21
-76
0
LINE
8
0
10
107
20
-76
11
93
21
-76
0
LINE
8
0
10
93
20
-76
11
93
21
-90
0
LINE
8
0
10
93
20
-73
11
107
21
-73
0
LINE
8
0
10
107
20
-73
11
107
21
-59
0
LINE
8
0
10
107
20
-59
11
93
21
-59
0
LINE
8
0
10
93
20
-59
11
93
21
-73
0
LINE
8
0
10
93
20
-56
11
107
21
-56
0
LINE
8
0
10
107
20
-56
11
107
21
-42
0
LINE
8
0
10
107
20
-42
11
93
21
-42
0
LINE
8
0
10
93
20
-42
11
93
21
-56
0
LINE
8
0
10
93
20
-39
11
107
21
-39
0
LINE
8
0
10
107
20
-39
11
107
21
-25
0
LINE
8
0
10
107
20
-25
11
93
21
-25
0
LINE
8
0
10
93
20
-25
11
93
21
-39
0
LINE
8
0
10
111
20
-90
11
125
21
-90
0
LINE
8
0
10
125
20
-90
11
125
21
-76
0
LINE
8
0
10
125
20
-76
11
111
21
-76
0
LINE
8
0
10
111
20
-76
11
111
21
-90
0
LINE
8
0
10
111
20
-73
11
125
21
-73
0
LINE
8
0
10
125
20
-73
11
125
21
-59
0
LINE
8
0
10
125
20
-59
11
111
21
-59
0
LINE
8
0
10
111
20
-59
11
111
21
-73
0
LINE
8
0
10
111
20
-56
11
125
21
-56
0
LINE
8
0
10
125
20
-56
11
125
21
-42
0
LINE
8
0
10
125
20
-42
11
111
21
-42
0
LINE
8
0
10
111
20
-42
11
111
21
-56
0
LINE
8
0
10
111
20
-39
11
125
21
-39
0
LINE
8
0
10
125
20
-39
11
125
21
-25
0
LINE
8
0
10
125
20
-25
11
111
21
-25
0
LINE
8
0
10
111
20
-25
11
111
21
-39
0
LINE
8
0
10
129
20
-107
11
134.7057101
21
-107
0
LINE
8
0
10
139.6661786
20
-93
11
129
21
-93
0
LINE
8
0
10
129
20
-93
11
129
21
-107
0
LINE
8
0
10
129
20
-90
11
140.7291362
21
-90
0
LINE
8
0
10
143
20
-83.5909091
11
143
21
-76
0
LINE
8
0
10
143
20
-76
11
129
21
-76
0
LINE
8
0
10
129
20
-76
11
129
21
-90
0
LINE
8
0
10
129
20
-73
11
143
21
-73
0
LINE
8
0
10
143
20
-73
11
143
21
-59
0
LINE
8
0
10
143
20
-59
11
129
21
-59
0
LINE
8
0
10
129
20
-59
11
129
21
-73
0
LINE
8
0
10
129
20
-56
11
143
21
-56
0
LINE
8
0
10
143
20
-56
11
143
21
-42
0
LINE
8
0
10
143
20
-42
11
129
21
-42
0
LINE
8
0
10
129
20
-42
11
129
21
-56
0
LINE
8
0
10
129
20
-39
11
143
21
-39
0
LINE
8
0
10
143
20
-39
11
143
21
-25
0
LINE
8
0
10
143
20
-25
11
129
21
-25
0
LINE
8
0
10
129
20
-25
11
129
21
-39
0
LINE
8
0
10
151.7130307
20
-59
11
147
21
-59
0
LINE
8
0
10
147
20
-59
11
147
21
-72.3016529
0
LINE
8
0
10
147
20
-56
11
152.7759883
21
-56
0
LINE
8
0
10
157.7364568
20
-42
11
147
21
-42
0
LINE
8
0
10
147
20
-42
11
147
21
-56
0
LINE
8
0
10
147
20
-39
11
158.7994143
21
-39
0
LINE
8
0
10
161
20
-32.7892562
11
161
21
-25
0
LINE
8
0
10
161
20
-25
11
147
21
-25
0
LINE
8
0
10
147
20
-25
11
147
21
-39
0
LINE
8
0
10
101.946
20
-107
11
115.946
21
-107
0
LINE
8
0
10
115.946
20
-107
11
115.946
21
-93
0
LINE
8
0
10
115.946
20
-93
11
101.946
21
-93
0
LINE
8
0
10
101.946
20
-93
11
101.946
21
-107
0
ENDSEC
0
EOF