0
SECTION
2
HEADER
9
$INSUNITS
70
4
0
ENDSEC
0
SECTION
2
TABLES
0
TABLE
2
LTYPE
0
LTYPE
72
65
70
64
2
CONTINUOUS
3
______
73
0
40
0
0
ENDTAB
0
TABLE
2
LAYER
0
ENDTAB
0
ENDSEC
0
SECTION
2
ENTITIES
0
LINE
8
0
10
67.1398065
20
-66.5062128
11
67.0062321
21
-23.5062128
0
LINE
8
0
10
69.0062225
20
-21.5
11
163
21
-21.5
0
LINE
8
0
10
165
20
-23.5
11
165
21
-108.2952265
0
LINE
8
0
10
163.0052334
20
-110.2952197
11
86.7512334
21
-110.4947529
0
LINE
8
0
10
84.746
20
-108.4947597
11
84.746
21
-70.5
0
LINE
8
0
10
82.746
20
-68.5
11
69.1397969
21
-68.5
0
ARC
8
0
10
69.0062225
20
-23.5
40
2
50
90
51
180.1779839
0
ARC
8
0
10
163
20
-23.5
40
2
50
0
51
90
0
ARC
8
0
10
163
20
-108.2952265
40
2
50
270.149926
51
0
0
ARC
8
0
10
86.746
20
-108.4947597
40
2
50
180
51
270.149926
0
ARC
8
0
10
82.746
20
-70.5
40
2
50
0
51
90
0
ARC
8
0
10
69.1397969
20
-66.5
40
2
50
180.1779839
51
270
0
LINE
8
0
10
93
20
-90
11
107
21
-90
0
LINE
8
0
10
107
20
-90
11
107
21
-76
0
LINE
8
0
10
107
20
-76
11
93
21
-76
0
LINE
8
0
10
93
20
-76
11
93
21
-90
0
LINE
8
0
10
93
20
-73
11
107
21
-73
0
LINE
8
0
10
107
20
-73
11
107
21
-59
0
LINE
8
0
10
107
20
-59
11
93
21
-59
0
LINE
8
0
10
93
20
-59
11
93
21
-73
0
LINE
8
0
10
93
20
-56
11
107
21
-56
0
LINE
8
0
10
107
20
-56
11
107
21
-42
0
LINE
8
0
10
107
20
-42
11
93
21
-42
0
LINE
8
0
10
93
20
-42
11
93
21
-56
0
LINE
8
0
10
93
20
-39
11
107
21
-39
0
LINE
8
0
10
107
20
-39
11
107
21
-25
0
LINE
8
0
10
107
20
-25
11
93
21
-25
0
LINE
8
0
10
93
20
-25
11
93
21
-39
0
LINE
8
0
10
111
20
-90
11
125
21
-90
0
LINE
8
0
10
125
20
-90
11
125
21
-76
0
LINE
8
0
10
125
20
-76
11
111
21
-76
0
LINE
8
0
10
111
20
-76
11
111
21
-90
0
LINE
8
0
10
111
20
-73
11
125
21
-73
0
LINE
8
0
10
125
20
-73
11
125
21
-59
0
LINE
8
0
10
125
20
-59
11
111
21
-59
0
LINE
8
0
10
111
20
-59
11
111
21
-73
0
LINE
8
0
10
111
20
-56
11
125
21
-56
0
LINE
8
0
10
125
20
-56
11
125
21
-42
0
LINE
8
0
10
125
20
-42
11
111
21
-42
0
LINE
8
0
10
111
20
-42
11
111
21
-56
0
LINE
8
0
10
111
20
-39
11
125
21
-39
0
LINE
8
0
10
125
20
-39
11
125
21
-25
0
LINE
8
0
10
125
20
-25
11
111
21
-25
0
LINE
8
0
10
111
20
-25
11
111
21
-39
0
LINE
8
0
10
129
20
-107
11
143
21
-107
0
LINE
8
0
10
143
20
-107
11
143
21
-93
0
LINE
8
0
10
143
20
-93
11
129
21
-93
0
LINE
8
0
10
129
20
-93
11
129
21
-107
0
LINE
8
0
10
129
20
-90
11
143
21
-90
0
LINE
8
0
10
143
20
-90
11
143
21
-76
0
LINE
8
0
10
143
20
-76
11
129
21
-76
0
LINE
8
0
10
129
20
-76
11
129
21
-90
0
LINE
8
0
10
129
20
-73
11
143
21
-73
0
LINE
8
0
10
143
20
-73
11
143
21
-59
0
LINE
8
0
10
143
20
-59
11
129
21
-59
0
LINE
8
0
10
129
20
-59
11
129
21
-73
0
LINE
8
0
10
129
20
-56
11
143
21
-56
0
LINE
8
0
10
143
20
-56
11
143
21
-42
0
LINE
8
0
10
143
20
-42
11
129
21
-42
0
LINE
8
0
10
129
20
-42
11
129
21
-56
0
LINE
8
0
10
129
20
-39
11
143
21
-39
0
LINE
8
0
10
143
20
-39
11
143
21
-25
0
LINE
8
0
10
143
20
-25
11
129
21
-25
0
LINE
8
0
10
129
20
-25
11
129
21
-39
0
LINE
8
0
10
147
20
-107
11
161
21
-107
0
LINE
8
0
10
161
20
-107
11
161
21
-93
0
LINE
8
0
10
161
20
-93
11
147
21
-93
0
LINE
8
0
10
147
20
-93
11
147
21
-107
0
LINE
8
0
10
147
20
-90
11
161
21
-90
0
LINE
8
0
10
161
20
-90
11
161
21
-76
0
LINE
8
0
10
161
20
-76
11
147
21
-76
0
LINE
8
0
10
147
20
-76
11
147
21
-90
0
LINE
8
0
10
147
20
-73
11
161
21
-73
0
LINE
8
0
10
161
20
-73
11
161
21
-59
0
LINE
8
0
10
161
20
-59
11
147
21
-59
0
LINE
8
0
10
147
20
-59
11
147
21
-73
0
LINE
8
0
10
147
20
-56
11
161
21
-56
0
LINE
8
0
10
161
20
-56
11
161
21
-42
0
LINE
8
0
10
161
20
-42
11
147
21
-42
0
LINE
8
0
10
147
20
-42
11
147
21
-56
0
LINE
8
0
10
147
20
-39
11
161
21
-39
0
LINE
8
0
10
161
20
-39
11
161
21
-25
0
LINE
8
0
10
161
20
-25
11
147
21
-25
0
LINE
8
0
10
147
20
-25
11
147
21
-39
0
LINE
8
0
10
101.946
20
-107
11
115.946
21
-107
0
LINE
8
0
10
115.946
20
-107
11
115.946
21
-93
0
LINE
8
0
10
115.946
20
-93
11
101.946
21
-93
0
LINE
8
0
10
101.946
20
-93
11
101.946
21
-107
0
ENDSEC
0
EOF