0
SECTION
2
HEADER
9
$INSUNITS
70
4
0
ENDSEC
0
SECTION
2
TABLES
0
TABLE
2
LTYPE
0
LTYPE
72
65
70
64
2
CONTINUOUS
3
______
73
0
40
0
0
ENDTAB
0
TABLE
2
LAYER
0
ENDTAB
0
ENDSEC
0
SECTION
2
ENTITIES
0
LINE
8
0
10
-11
20
-6.2714285
11
-11
21
56.5
0
LINE
8
0
10
-6
20
61.5
11
6.1886117
21
61.5
0
LINE
8
0
10
7.7697507
20
61.7565836
11
24.8794833
21
67.4598278
0
LINE
8
0
10
25.1224028
20
67.5340008
11
42.343322
21
72.3175894
0
LINE
8
0
10
43.6815415
20
72.5
11
64.3184585
21
72.5
0
LINE
8
0
10
65.656678
20
72.3175894
11
82.7449155
21
67.5708568
0
LINE
8
0
10
83.26114
20
67.4564767
11
98.2761
21
64.9539833
0
LINE
8
0
10
102.0663099
20
61.9527042
11
118.6122049
21
22.4263995
0
LINE
8
0
10
119
20
20.495709
11
119
21
1.0245268
0
LINE
8
0
10
119.1088535
20
-0.0131077
11
128.3669638
21
-43.6534944
0
LINE
8
0
10
126.5541246
20
-48.6311827
11
116.4068941
21
-56.5590681
0
LINE
8
0
10
109.3885329
20
-55.6973217
11
99.3070544
21
-42.7936176
0
LINE
8
0
10
98.42814
20
-41.9185181
11
85.1402765
21
-31.6296704
0
LINE
8
0
10
83.9123587
20
-30.9312712
11
68.1035658
21
-24.7012144
0
LINE
8
0
10
67.3124608
20
-24.4628269
11
50.0255094
21
-20.7789206
0
LINE
8
0
10
49.8135059
20
-20.7385044
11
-6.830113
21
-11.2020382
0
ARC
8
0
10
-6
20
56.5
40
5
50
90
51
180
0
ARC
8
0
10
6.1886117
20
66.5
40
5
50
270
51
288.4349506
0
ARC
8
0
10
26.4606223
20
62.7164113
40
5
50
105.5241131
51
108.4349506
0
ARC
8
0
10
43.6815415
20
67.5
40
5
50
90
51
105.5241131
0
ARC
8
0
10
64.3184585
20
67.5
40
5
50
74.4758869
51
90
0
ARC
8
0
10
84.083135
20
72.3884463
40
5
50
254.4758869
51
260.5376769
0
ARC
8
0
10
97.454105
20
60.0220138
40
5
50
22.7144127
51
80.5376769
0
ARC
8
0
10
114
20
20.495709
40
5
50
0
51
22.7144127
0
ARC
8
0
10
124
20
1.0245268
40
5
50
180
51
191.9774616
0
ARC
8
0
10
123.4758173
20
-44.6911289
40
5
50
307.9999995
51
11.9774616
0
ARC
8
0
10
113.3285867
20
-52.6190143
40
5
50
217.9999995
51
307.9999995
0
ARC
8
0
10
95.3670006
20
-45.8719249
40
5
50
37.9999995
51
52.2492322
0
ARC
8
0
10
82.0791372
20
-35.5830772
40
5
50
52.2492322
51
68.4911892
0
ARC
8
0
10
66.2703443
20
-29.3530204
40
5
50
68.4911892
51
77.9700302
0
ARC
8
0
10
48.9833929
20
-25.6691142
40
5
50
77.9700302
51
80.443356
0
ARC
8
0
10
-6
20
-6.2714285
40
5
50
180
51
260.443356
0
ENDSEC
0
EOF